<?xml version="1.0" encoding="UTF-8" standalone="no"?> <svg xmlns="http://www.w3.org/2000/svg" xmlns:xlink="http://www.w3.org/1999/xlink" xmlns:serif="http://www.serif.com/" width="100%" height="100%" viewBox="0 0 44 12" xml:space="preserve" style="fill-rule:evenodd;clip-rule:evenodd;stroke-linejoin:round;stroke-miterlimit:1.41421;"><rect id="Artboard1" x="0" y="0" width="43.2" height="11.295" style="fill:none;"></rect><g><g><g><g><g><g><path d="M7.074,7.641c0,1.727 -1.526,3.127 -3.409,3.127c-0.232,0 -0.458,-0.021 -0.677,-0.061l0,-1.699c0.207,0.086 0.436,0.134 0.677,0.134c0.903,0 1.635,-0.672 1.637,-1.501l1.772,0Zm-5.039,-3.361l0.01,0c-0.011,0.069 -0.016,0.14 -0.016,0.211l0,3.15c0,0.035 0.001,0.07 0.004,0.105l0,2.641c-1.059,-0.531 -1.777,-1.561 -1.777,-2.746l0,-3.15c0,-1.185 0.719,-2.216 1.779,-2.746l0,2.535Zm0.954,-2.854c0.219,-0.04 0.445,-0.061 0.676,-0.061c1.883,0 3.409,1.399 3.409,3.126l-1.772,0c0,-0.828 -0.733,-1.5 -1.637,-1.5c-0.241,0 -0.47,0.047 -0.676,0.133l0,-1.698Z" style="fill:url(#_Linear1);fill-rule:nonzero;"></path><rect x="0.254" y="0.456" width="1.789" height="7.082" style="fill:url(#_Linear2);"></rect></g><g><path d="M3.283,6.02l-0.105,0.947c-0.006,0.047 0.009,0.095 0.041,0.13c0.032,0.035 0.077,0.056 0.124,0.056l0.668,0c0.048,0 0.093,-0.021 0.125,-0.056c0.031,-0.035 0.047,-0.083 0.041,-0.13l-0.105,-0.947c0.171,-0.124 0.273,-0.321 0.273,-0.537c0,-0.368 -0.299,-0.668 -0.668,-0.668c-0.368,0 -0.667,0.3 -0.667,0.668c0,0.216 0.102,0.413 0.273,0.537Z" style="fill:none;stroke:#359ea2;stroke-width:0.31px;"></path></g></g><path d="M3.006,1.444c0.219,-0.04 0.445,-0.061 0.676,-0.061c1.883,0 3.409,1.4 3.409,3.127l-1.772,0c0,-0.829 -0.733,-1.501 -1.637,-1.501c-0.241,0 -0.47,0.048 -0.676,0.133l0,-1.698Z" style="fill:url(#_Linear3);fill-rule:nonzero;"></path></g><rect x="1.65" y="7.536" width="0.393" height="2.02" style="fill:#359ea2;"></rect><rect x="2.02" y="9.557" width="0.023" height="0.817" style="fill:#359ea2;"></rect></g><g><path d="M13.999,8.58l-1.594,-1.797c1,-0.203 1.331,-0.932 1.331,-1.654c0,-0.91 -0.654,-1.737 -1.895,-1.744c-0.835,0 -1.669,-0.008 -2.504,-0.008l0,5.271l0.993,0l0,-1.759l0.955,0l1.533,1.759l1.181,0l0,-0.068Zm-2.158,-4.27c0.624,0 0.902,0.421 0.902,0.842c0,0.421 -0.27,0.842 -0.902,0.842l-1.511,0l0,-1.684l1.511,0Z" style="fill:url(#_Linear4);fill-rule:nonzero;"></path><path d="M18.089,7.122c0.143,-1.527 -0.631,-2.294 -1.872,-2.294c-1.203,0 -1.97,0.813 -1.97,1.94c0,1.188 0.759,1.978 2.038,1.978c0.564,0 1.203,-0.196 1.594,-0.602l-0.587,-0.579c-0.21,0.218 -0.654,0.346 -0.992,0.346c-0.647,0 -1.045,-0.331 -1.106,-0.789l2.895,0Zm-2.88,-0.76c0.136,-0.481 0.542,-0.721 1.038,-0.721c0.526,0 0.902,0.24 0.962,0.721l-2,0Z" style="fill:url(#_Linear5);fill-rule:nonzero;"></path><path d="M22.518,8.648l0,-1.947c0,-1.166 -0.7,-1.82 -1.572,-1.82c-0.466,0 -0.842,0.188 -1.218,0.556l-0.06,-0.503l-0.819,0l0,3.714l0.909,0l0,-1.895c0,-0.564 0.384,-1.037 0.948,-1.037c0.586,0 0.894,0.428 0.894,0.992l0,1.94l0.918,0Z" style="fill:url(#_Linear6);fill-rule:nonzero;"></path><path d="M23.6,3.994l0,0.955l-0.691,0l0,0.789l0.691,0l0,1.602c0,0.925 0.527,1.383 1.331,1.353c0.278,-0.007 0.497,-0.052 0.76,-0.158l-0.256,-0.782c-0.135,0.068 -0.301,0.113 -0.444,0.113c-0.285,0 -0.481,-0.173 -0.481,-0.526l0,-1.602l1.03,0l0,-0.789l-1.022,0l0,-1.053l-0.918,0.098Z" style="fill:url(#_Linear7);fill-rule:nonzero;"></path><path d="M28.864,7.573c-0.226,0.225 -0.519,0.308 -0.812,0.308c-0.572,0 -1.053,-0.376 -1.053,-1.083c0,-0.646 0.451,-1.097 1.068,-1.097c0.255,0 0.526,0.097 0.744,0.293l0.579,-0.609c-0.406,-0.399 -0.812,-0.549 -1.338,-0.549c-1.076,0 -1.97,0.647 -1.97,1.962c0,1.316 0.894,1.963 1.97,1.963c0.549,0 1,-0.166 1.428,-0.587l-0.616,-0.601Z" style="fill:url(#_Linear8);fill-rule:nonzero;"></path><path d="M29.984,4.941l0,1.948c0,1.15 0.647,1.819 1.534,1.819c0.519,0 0.872,-0.18 1.255,-0.556l0.061,0.504l0.819,0l0,-3.715l-0.91,0l0,1.895c0,0.564 -0.383,1.038 -0.947,1.038c-0.586,0 -0.895,-0.429 -0.895,-0.993l0,-1.94l-0.917,0Z" style="fill:url(#_Linear9);fill-rule:nonzero;"></path><path d="M36.593,5.708c0.587,0 1.053,0.414 1.053,1.083c0,0.647 -0.466,1.09 -1.053,1.09c-0.579,0 -1.075,-0.421 -1.075,-1.09c0,-0.647 0.496,-1.083 1.075,-1.083Zm-2.053,-2.316l0,5.256l0.858,0l0.06,-0.511c0.285,0.443 0.744,0.594 1.195,0.594c1.09,0 1.91,-0.722 1.91,-1.94c0,-1.278 -0.805,-1.94 -1.887,-1.94c-0.391,0 -1,0.211 -1.218,0.594l0,-2.053l-0.918,0Z" style="fill:url(#_Linear10);fill-rule:nonzero;"></path><path d="M41.059,4.866c-1.18,0 -1.917,0.872 -1.917,1.932c0,1.068 0.722,1.933 1.925,1.933c1.203,0 1.932,-0.865 1.932,-1.933c0,-1.06 -0.759,-1.932 -1.94,-1.932Zm0.008,0.835c0.616,0 1.007,0.541 1.007,1.097c0,0.564 -0.338,1.091 -1.007,1.091c-0.669,0 -1.008,-0.527 -1.008,-1.091c0,-0.556 0.346,-1.097 1.008,-1.097Z" style="fill:url(#_Linear11);fill-rule:nonzero;"></path></g></g></g><defs><linearGradient id="_Linear1" x1="0" y1="0" x2="1" y2="0" gradientUnits="userSpaceOnUse" gradientTransform="matrix(-3.69135,2.75682,-2.75682,-3.69135,6.75333,7.85092)"><stop offset="0" style="stop-color:#05868b;stop-opacity:1"></stop><stop offset="0.16" style="stop-color:#1b9196;stop-opacity:1"></stop><stop offset="0.35" style="stop-color:#2e9a9f;stop-opacity:1"></stop><stop offset="1" style="stop-color:#359ea2;stop-opacity:1"></stop></linearGradient><linearGradient id="_Linear2" x1="0" y1="0" x2="1" y2="0" gradientUnits="userSpaceOnUse" gradientTransform="matrix(-3.69135,2.75682,-2.75682,-3.69135,6.75333,7.85092)"><stop offset="0" style="stop-color:#05868b;stop-opacity:1"></stop><stop offset="1" style="stop-color:#359ea2;stop-opacity:1"></stop></linearGradient><linearGradient id="_Linear3" x1="0" y1="0" x2="1" y2="0" gradientUnits="userSpaceOnUse" gradientTransform="matrix(-3.77806,-2.75362,2.75362,-3.77806,6.8914,4.32445)"><stop offset="0" style="stop-color:#05868b;stop-opacity:1"></stop><stop offset="0.16" style="stop-color:#1b9196;stop-opacity:1"></stop><stop offset="0.35" style="stop-color:#2e9a9f;stop-opacity:1"></stop><stop offset="1" style="stop-color:#359ea2;stop-opacity:1"></stop></linearGradient><linearGradient id="_Linear4" x1="0" y1="0" x2="1" y2="0" gradientUnits="userSpaceOnUse" gradientTransform="matrix(32.9643,0.518117,-0.518117,32.9643,9.64741,5.87796)"><stop offset="0" style="stop-color:#008489;stop-opacity:1"></stop><stop offset="1" style="stop-color:#359ea2;stop-opacity:1"></stop></linearGradient><linearGradient id="_Linear5" x1="0" y1="0" x2="1" y2="0" gradientUnits="userSpaceOnUse" gradientTransform="matrix(32.9643,0.518117,-0.518117,32.9643,9.64741,5.87796)"><stop offset="0" style="stop-color:#008489;stop-opacity:1"></stop><stop offset="1" style="stop-color:#359ea2;stop-opacity:1"></stop></linearGradient><linearGradient id="_Linear6" x1="0" y1="0" x2="1" y2="0" gradientUnits="userSpaceOnUse" gradientTransform="matrix(32.9643,0.518117,-0.518117,32.9643,9.64741,5.87796)"><stop offset="0" style="stop-color:#008489;stop-opacity:1"></stop><stop offset="1" style="stop-color:#359ea2;stop-opacity:1"></stop></linearGradient><linearGradient id="_Linear7" x1="0" y1="0" x2="1" y2="0" gradientUnits="userSpaceOnUse" gradientTransform="matrix(32.9643,0.518117,-0.518117,32.9643,9.64741,5.87796)"><stop offset="0" style="stop-color:#008489;stop-opacity:1"></stop><stop offset="1" style="stop-color:#359ea2;stop-opacity:1"></stop></linearGradient><linearGradient id="_Linear8" x1="0" y1="0" x2="1" y2="0" gradientUnits="userSpaceOnUse" gradientTransform="matrix(32.9643,0.518117,-0.518117,32.9643,9.64741,5.87796)"><stop offset="0" style="stop-color:#008489;stop-opacity:1"></stop><stop offset="1" style="stop-color:#359ea2;stop-opacity:1"></stop></linearGradient><linearGradient id="_Linear9" x1="0" y1="0" x2="1" y2="0" gradientUnits="userSpaceOnUse" gradientTransform="matrix(32.9643,0.518117,-0.518117,32.9643,9.64741,5.87796)"><stop offset="0" style="stop-color:#008489;stop-opacity:1"></stop><stop offset="1" style="stop-color:#359ea2;stop-opacity:1"></stop></linearGradient><linearGradient id="_Linear10" x1="0" y1="0" x2="1" y2="0" gradientUnits="userSpaceOnUse" gradientTransform="matrix(32.9643,0.518117,-0.518117,32.9643,9.64741,5.87796)"><stop offset="0" style="stop-color:#008489;stop-opacity:1"></stop><stop offset="1" style="stop-color:#359ea2;stop-opacity:1"></stop></linearGradient><linearGradient id="_Linear11" x1="0" y1="0" x2="1" y2="0" gradientUnits="userSpaceOnUse" gradientTransform="matrix(32.9643,0.518117,-0.518117,32.9643,9.64741,5.87796)"><stop offset="0" style="stop-color:#008489;stop-opacity:1"></stop><stop offset="1" style="stop-color:#359ea2;stop-opacity:1"></stop></linearGradient></defs></svg> 